<?xml version="1.0" encoding="utf-8"?>
<!-- Generator: Adobe Illustrator 18.1.0, SVG Export Plug-In . SVG Version: 6.00 Build 0)  -->
<!DOCTYPE svg PUBLIC "-//W3C//DTD SVG 1.1//EN" "http://www.w3.org/Graphics/SVG/1.1/DTD/svg11.dtd">
<svg version="1.1" id="Layer_1" xmlns="http://www.w3.org/2000/svg" xmlns:xlink="http://www.w3.org/1999/xlink" x="0px" y="0px"
	 viewBox="0 0 720 720" enable-background="new 0 0 720 720" xml:space="preserve">
<g id="Your_Icon">
	<path fill="#BC9D6D" d="M703,471.7c-2.1-6.3-8.4-12.7-14.8-10.6c8.4-2.1,12.7-8.4,10.6-16.9s-8.4-12.7-16.9-10.6
		s-29.6,6.3-35.9,6.3l0,0c-10.6-48.6-61.2-92.9-141.5-82.3c-33.8,4.2-65.5,23.2-86.6,50.7c-14.8,19-23.2,40.1-25.3,63.3
		c-4.2,0-6.3,0-10.6,0c-8.4,2.1-16.9,6.3-23.2,12.7c-6.3,6.3-8.4,16.9-6.3,25.3c2.1,16.9,16.9,29.6,33.8,29.6c2.1,0,2.1,0,4.2,0
		c4.2,0,6.3-2.1,10.6-2.1c2.1,4.2,2.1,6.3,4.2,10.6l-21.1,14.8c-8.4-6.3-19-10.6-31.7-10.6c-6.3,0-10.6,0-16.9,2.1l-59.1,21.1
		c-6.3,2.1-10.6,4.2-14.8,8.4l-35.9-25.3v-2.1c2.1-12.7,0-25.3-8.4-35.9l-35.9-50.7c-8.4-12.7-25.3-21.1-40.1-21.1l0,0l-8.4-27.4
		c10.6-8.4,16.9-19,19-33.8l6.3-61.2c2.1-12.7-2.1-25.3-10.6-35.9l12.7-16.9c4.2,2.1,10.6,2.1,14.8,2.1c6.3,0,12.7-2.1,19-4.2
		l57-25.3c16.9-8.4,27.4-23.2,29.6-40.1l19-4.2c12.7,40.1,46.5,73.9,92.9,86.6c14.8,4.2,27.4,4.2,40.1,4.2
		c57,0,97.1-31.7,109.8-71.8l0,0c8.4,2.1,27.4,8.4,35.9,10.6c8.4,2.1,14.8-2.1,16.9-8.4c2.1-8.4-2.1-14.8-10.6-16.9l0,0h2.1
		c6.3,0,12.7-4.2,12.7-10.6c2.1-8.4-2.1-14.8-10.6-16.9c-2.1,0-27.4-8.4-38-10.6l0,0c10.6-48.6-21.1-109.8-99.2-128.8
		C392.6,24.1,333.5,51.5,306,102.2c-2.1-2.1-6.3-4.2-10.6-4.2c-2.1,0-6.3,0-8.4,0c-14.8,0-29.6,10.6-33.8,25.3
		c-4.2,19,6.3,35.9,25.3,42.2c2.1,0,6.3,0,8.4,0h2.1c0,4.2,0,6.3,0,10.6l-21.1,4.2c-8.4-14.8-25.3-25.3-44.3-25.3
		c-6.3,0-12.7,2.1-19,4.2l-57,25.3c-25.3,10.6-35.9,40.1-25.3,65.5c2.1,4.2,4.2,8.4,6.3,10.6L116,277.5c-4.2-2.1-6.3-2.1-10.6-2.1
		c-27.4-2.1-52.8,16.9-54.9,42.2l-6.3,61.2c-2.1,12.7,2.1,25.3,10.6,35.9c8.4,10.6,19,16.9,33.8,19c2.1,0,4.2,0,6.3,0
		c2.1,0,2.1,0,4.2,0l8.4,25.3l0,0c-10.6,8.4-19,19-21.1,31.7s0,25.3,8.4,35.9l35.9,50.7c8.4,12.7,25.3,21.1,40.1,21.1
		c10.6,0,19-2.1,27.4-8.4c2.1-2.1,4.2-2.1,6.3-4.2l33.8,23.2c-2.1,10.6-2.1,21.1,0,31.7c6.3,19,25.3,31.7,46.5,31.7
		c6.3,0,10.6,0,16.9-2.1l59.1-21.1c25.3-8.4,38-35.9,29.6-61.2l21.1-14.8c25.3,29.6,61.2,46.5,101.3,46.5c6.3,0,12.7,0,19-2.1
		c80.2-10.6,118.2-67.6,114-116.1l0,0c8.4-2.1,35.9-6.3,38-6.3C698.8,486.5,705.1,478.1,703,471.7z M453.8,60
		c46.5,10.6,88.7,48.6,78.1,97.1c-2.1,14.8,4.2,29.6,19,31.7c-12.7-2.1-27.4,6.3-31.7,19c-14.8,46.5-69.7,59.1-116.1,46.5
		c-54.9-12.7-88.7-69.7-73.9-122.5C341.9,79,398.9,45.2,453.8,60z M293.4,129.7c-4.2,0-6.3-4.2-4.2-8.4c0-2.1,2.1-4.2,6.3-4.2
		c0,0,0,0,2.1,0c4.2,0,6.3,4.2,4.2,6.3l0,0l0,0C299.7,129.7,297.6,131.8,293.4,129.7z M168.8,203.6l57-25.3c2.1-2.1,6.3-2.1,8.4-2.1
		c4.2,0,10.6,2.1,12.7,4.2l-19,4.2c-8.4,2.1-12.7,8.4-10.6,16.9c2.1,6.3,8.4,10.6,14.8,10.6c2.1,0,2.1,0,4.2,0l16.9-4.2
		c-2.1,2.1-4.2,6.3-8.4,6.3l-57,25.3c-2.1,0-2.1,0-4.2,2.1l8.4-12.7c4.2-6.3,2.1-14.8-4.2-19c-6.3-4.2-14.8-2.1-19,2.1l-10.6,14.8
		C154,218.3,158.2,207.8,168.8,203.6z M86.5,391.5c-4.2-4.2-4.2-10.6-4.2-14.8l6.3-61.2c2.1-10.6,8.4-16.9,19-19l-6.3,8.4
		c-4.2,6.3-2.1,14.8,4.2,19c2.1,2.1,6.3,2.1,8.4,2.1c4.2,0,8.4-2.1,10.6-6.3l6.3-8.4c0,2.1,0,4.2,0,6.3l-6.3,61.2c0,2.1,0,2.1,0,4.2
		l-2.1-10.6c-2.1-6.3-10.6-10.6-16.9-8.4c-8.4,2.1-12.7,10.6-8.4,16.9l4.2,16.9C94.9,397.8,90.7,393.6,86.5,391.5z M160.4,556.2
		l-35.9-50.7c-4.2-4.2-4.2-10.6-4.2-14.8c0-2.1,2.1-4.2,2.1-6.3l4.2,10.6c2.1,6.3,8.4,10.6,12.7,10.6c2.1,0,2.1,0,4.2,0
		c8.4-2.1,12.7-10.6,8.4-16.9l-4.2-10.6c4.2,2.1,6.3,4.2,8.4,6.3l35.9,50.7c0,2.1,2.1,2.1,2.1,4.2l-10.6-8.4
		c-6.3-4.2-14.8-2.1-19,4.2c-4.2,6.3-2.1,14.8,4.2,19l16.9,10.6C179.4,566.7,166.7,564.6,160.4,556.2z M360.9,615.3l-59.1,21.1
		c-10.6,4.2-23.2-2.1-27.4-12.7c0-2.1,0-2.1,0-4.2l10.6,6.3c2.1,2.1,4.2,2.1,8.4,2.1c4.2,0,8.4-2.1,12.7-6.3
		c4.2-6.3,2.1-14.8-4.2-19l-10.6-8.4l57-21.1c2.1,0,4.2-2.1,6.3-2.1c2.1,0,4.2,0,6.3,0l-12.7,8.4c-6.3,4.2-8.4,12.7-2.1,19
		c2.1,4.2,6.3,6.3,10.6,6.3c2.1,0,6.3,0,8.4-2.1l10.6-6.3C371.5,606.9,367.3,613.2,360.9,615.3z M390.5,505.5c0,0-2.1,2.1-4.2,2.1
		c-4.2,0-6.3-2.1-6.3-4.2c0-2.1,0-4.2,2.1-4.2c0,0,2.1-2.1,4.2-2.1l0,0c2.1,0,6.3,2.1,6.3,4.2l0,0l0,0
		C392.6,503.4,390.5,505.5,390.5,505.5z M536.2,583.6c-54.9,8.4-107.7-31.7-116.1-86.6c-4.2-27.4,4.2-52.8,19-73.9
		c16.9-21.1,40.1-35.9,67.6-40.1c63.3-8.4,103.5,23.2,109.8,59.1c2.1,14.8,14.8,25.3,29.6,23.2c-12.7,2.1-23.2,14.8-21.1,29.6
		C629.1,545.6,582.6,577.3,536.2,583.6z"/>
</g>
</svg>
