<?xml version="1.0" encoding="utf-8"?>
<!-- Generator: Adobe Illustrator 18.1.0, SVG Export Plug-In . SVG Version: 6.00 Build 0)  -->
<!DOCTYPE svg PUBLIC "-//W3C//DTD SVG 1.1//EN" "http://www.w3.org/Graphics/SVG/1.1/DTD/svg11.dtd">
<svg version="1.1" id="Layer_1" xmlns="http://www.w3.org/2000/svg" xmlns:xlink="http://www.w3.org/1999/xlink" x="0px" y="0px"
	 viewBox="-309 311 100 100" style="enable-background:new -309 311 100 100;" xml:space="preserve">
<style type="text/css">
	.st0{display:none;}
	.st1{display:inline;}
	.st2{enable-background:new    ;}
	.st3{display:inline;fill:none;stroke:#FFFFFF;stroke-miterlimit:10;}
	.st4{display:inline;fill:none;}
	.st5{font-family:'Helvetica';}
	.st6{font-size:1.7778;}
	.st7{display:inline;stroke:#FFFFFF;stroke-miterlimit:10;}
</style>
<g id="Captions" class="st0">
	<rect x="-437" y="308.4" class="st1" width="137" height="73.3"/>
	<rect x="-294.7" y="281.7" class="st1" width="74.1" height="22.2"/>
	<text transform="matrix(1 0 0 1 -245.8516 293.9629)" class="st1 st5 st6">http://thenounproject.com</text>
	<text transform="matrix(1 0 0 1 -289.4326 290.2592)" class="st1" style="font-family:'Helvetica-Bold'; font-size:4.5613;">The Noun Project</text>
	<text transform="matrix(1 0 0 1 -288.6025 293.8145)" class="st1" style="font-family:'Helvetica-Bold'; font-size:2.963;">Icon Template</text>
	<text transform="matrix(1 0 0 1 -426.9629 316.1851)" class="st1" style="font-family:'Helvetica-Bold'; font-size:4.5613;">Reminders</text>
	<line class="st3" x1="-288.8" y1="297.7" x2="-281.4" y2="297.7"/>
	<line class="st3" x1="-427.3" y1="320.6" x2="-414.7" y2="320.6"/>
	<g class="st1">
		<g>
			<g>
				<rect x="-421.3" y="331.6" width="6.5" height="6.4"/>
				<path d="M-416.6,339.7h3.5v-3.5h-3.5V339.7z M-412.7,340.1h-4.2v-4.1h4.2V340.1L-412.7,340.1z M-417.9,341h6.1V335h-6.1V341
					L-417.9,341z M-411.4,341.4h-6.8v-6.7h6.8V341.4L-411.4,341.4z"/>
				<polygon points="-417.8,341.1 -417.9,341 -411.8,334.9 -411.7,335 				"/>
			</g>
		</g>
	</g>
	<rect x="-427.3" y="351.4" class="st4" width="25.9" height="24.1"/>
	<text transform="matrix(1 0 0 1 -427.333 352.9679)" class="st1" style="font-family:'Helvetica-Bold'; font-size:2.2222;">Strokes</text>
	<text transform="matrix(1 0 0 1 -427.333 356.6718)" class="st1 st5 st6">Try to keep strokes at 4px</text>
	<text transform="matrix(1 0 0 1 -427.333 360.3755)" class="st1 st5 st6">Minimum stroke weight is 2px</text>
	<text transform="matrix(1 0 0 1 -427.333 363.709)" class="st1 st5 st6">For thicker strokes use even </text>
	<text transform="matrix(1 0 0 1 -427.333 365.9311)" class="st1 st5 st6">numbers: 6px, 8px etc.</text>
	<text transform="matrix(1 0 0 1 -427.333 369.2647)" class="st1 st6" style="font-family:'Helvetica-Bold';">Remember to expand strokes </text>
	<text transform="matrix(1 0 0 1 -427.333 371.4868)" class="st1 st6" style="font-family:'Helvetica-Bold';">before saving as an SVG </text>
	<rect x="-395.9" y="351.4" class="st4" width="25.9" height="24.1"/>
	<text transform="matrix(1 0 0 1 -395.8516 352.9679)" class="st1" style="font-family:'Helvetica-Bold'; font-size:2.2222;">Size</text>
	<text transform="matrix(1 0 0 1 -395.8516 356.6718)" class="st1 st5 st6">Cannot be wider or taller than </text>
	<text transform="matrix(1 0 0 1 -395.8516 359.2647)" class="st1 st5 st6">100px (artboard size)</text>
	<text transform="matrix(1 0 0 1 -395.8516 362.9679)" class="st1 st5 st6">Scale your icon to fill as much of </text>
	<text transform="matrix(1 0 0 1 -395.8516 365.1905)" class="st1 st5 st6">the artboard as possible</text>
	<rect x="-364.4" y="351.4" class="st4" width="25.9" height="24.1"/>
	<text transform="matrix(1 0 0 1 -364.37 352.9679)" class="st1" style="font-family:'Helvetica-Bold'; font-size:2.2222;">Ungroup</text>
	<text transform="matrix(1 0 0 1 -364.37 356.6718)" class="st1 st5 st6">If your design has more than one </text>
	<text transform="matrix(1 0 0 1 -364.37 358.8941)" class="st1 st5 st6">shape, make sure to ungroup</text>
	<rect x="-331.8" y="351.4" class="st4" width="25.9" height="24.1"/>
	<text transform="matrix(1 0 0 1 -331.7774 352.9679)" class="st1" style="font-family:'Helvetica-Bold'; font-size:2.2222;">Save as</text>
	<text transform="matrix(1 0 0 1 -331.7774 356.6718)" class="st1 st5 st6">Save as .SVG and make sure </text>
	<text transform="matrix(1 0 0 1 -331.7774 358.8941)" class="st1 st5 st6">“Use Artboards” is checked</text>
	<text transform="matrix(1.0074 0 0 1 -387.7354 331.0688)" class="st1 st5" style="font-size:1.906;">100px</text>
	<text transform="matrix(1.0074 0 0 1 -325.1115 337.2963)" class="st1" style="font-family:'Helvetica-Bold'; font-size:3.812;">.SVG</text>
	<rect x="-388.5" y="334.2" class="st1" width="7.6" height="7.5"/>
	<rect x="-388.4" y="331.9" class="st1" width="0.4" height="1.7"/>
	<rect x="-381.3" y="331.9" class="st1" width="0.4" height="1.7"/>
	<rect x="-388.8" y="332.4" class="st1" width="8.3" height="0.4"/>
	<g class="st1">
		<rect x="-356.8" y="333.5" width="7.6" height="7.5"/>
		<rect x="-351.6" y="329.7" width="2.5" height="2.4"/>
	</g>
	<rect x="-427" y="325.1" class="st7" width="22.2" height="22.2"/>
	<rect x="-395.9" y="325.1" class="st7" width="22.2" height="22.2"/>
	<rect x="-364" y="325.1" class="st7" width="22.2" height="22.2"/>
	<rect x="-331.4" y="325.1" class="st7" width="22.2" height="22.2"/>
</g>
<g id="Your_Icon">
	<path d="M-230.8,371.6c-0.5,0-1,0.2-1.4,0.4l-8.5-14.3l8.5-14.3c0.4,0.2,0.8,0.4,1.4,0.4c1.5,0,2.7-1.2,2.7-2.7
		c0-1.5-1.2-2.7-2.7-2.7c-1.5,0-2.7,1.2-2.7,2.7c0,0,0,0,0,0l-16.6,0.2l-8.1-14.5c0.8-0.5,1.4-1.3,1.4-2.3c0-1.5-1.2-2.7-2.7-2.7
		c-1.5,0-2.7,1.2-2.7,2.7c0,1,0.6,1.9,1.4,2.3l-8.1,14.5l-16.6-0.2c0,0,0,0,0,0c0-1.5-1.2-2.7-2.7-2.7c-1.5,0-2.7,1.2-2.7,2.7
		c0,1.5,1.2,2.7,2.7,2.7c0.5,0,0.9-0.2,1.4-0.4l8.5,14.3l-8.5,14.3c-0.4-0.2-0.9-0.4-1.4-0.4c-1.5,0-2.7,1.2-2.7,2.7
		c0,1.5,1.2,2.7,2.7,2.7c1.5,0,2.7-1.2,2.7-2.7c0,0,0,0,0,0l16.6-0.2l8.1,14.5c-0.8,0.5-1.4,1.3-1.4,2.3c0,1.5,1.2,2.7,2.7,2.7
		c1.5,0,2.7-1.2,2.7-2.7c0-1-0.6-1.9-1.4-2.3l8.1-14.5l16.6,0.2c0,0,0,0,0,0c0,1.5,1.2,2.7,2.7,2.7c1.5,0,2.7-1.2,2.7-2.7
		C-228.1,372.8-229.3,371.6-230.8,371.6z"/>
</g>
</svg>
