<?xml version="1.0" encoding="utf-8"?>
<!-- Generator: Adobe Illustrator 18.1.0, SVG Export Plug-In . SVG Version: 6.00 Build 0)  -->
<!DOCTYPE svg PUBLIC "-//W3C//DTD SVG 1.1//EN" "http://www.w3.org/Graphics/SVG/1.1/DTD/svg11.dtd">
<svg version="1.1" id="Layer_1" xmlns="http://www.w3.org/2000/svg" xmlns:xlink="http://www.w3.org/1999/xlink" x="0px" y="0px"
	 viewBox="0 0 291.8 361.6" enable-background="new 0 0 291.8 361.6" xml:space="preserve">
<g>
	<defs>
		<rect id="SVGID_1_" x="26.2" y="28.8" width="240" height="303"/>
	</defs>
	<clipPath id="SVGID_2_">
		<use xlink:href="#SVGID_1_"  overflow="visible"/>
	</clipPath>
	<g clip-path="url(#SVGID_2_)">
		
			<image overflow="visible" width="1079" height="1500" xlink:href="../../production/public-domain-images-vintage-mugshots-1920s-nswpd-0115.jpg"  transform="matrix(0.2303 0 0 0.2303 21.9019 16.1015)">
		</image>
	</g>
</g>
<g>
	<path fill="none" stroke="#87724F" stroke-miterlimit="10" d="M283,333V26.3c-10.5,0-19-8.5-19-19c0-0.1,0-0.2,0-0.3H26.7
		c0,0.1,0,0.2,0,0.3c0,10.4-8.3,18.8-18.7,19V333c10.3,0.2,18.7,8.6,18.7,19H264C264,341.5,272.5,333,283,333z"/>
	<g>
		<path fill="#87724F" d="M15.5,11.9c2.4,2.4,2.1,3.2,1.4,3.9c-0.7,0.7-1.5,1-3.9-1.4S8,7,8,7S13,9.4,15.5,11.9z"/>
		<g>
			<circle fill="#87724F" cx="12" cy="17.1" r="1.7"/>
			<circle fill="#87724F" cx="18.1" cy="11" r="1.7"/>
		</g>
	</g>
	<g>
		<path fill="#87724F" d="M275.6,11.9c-2.4,2.4-2.1,3.2-1.4,3.9c0.7,0.7,1.5,1,3.9-1.4S283,7,283,7S278,9.4,275.6,11.9z"/>
		<g>
			<circle fill="#87724F" cx="279.1" cy="17.1" r="1.7"/>
			<circle fill="#87724F" cx="273" cy="11" r="1.7"/>
		</g>
	</g>
	<g>
		<path fill="#87724F" d="M275.6,347.1c-2.4-2.4-2.1-3.2-1.4-3.9c0.7-0.7,1.5-1,3.9,1.4s4.9,7.4,4.9,7.4S278,349.5,275.6,347.1z"/>
		<g>
			<circle fill="#87724F" cx="279.1" cy="341.9" r="1.7"/>
			<circle fill="#87724F" cx="273" cy="348" r="1.7"/>
		</g>
	</g>
	<g>
		<path fill="#87724F" d="M15.5,347.1c2.4-2.4,2.1-3.2,1.4-3.9c-0.7-0.7-1.5-1-3.9,1.4S8,352,8,352S13,349.5,15.5,347.1z"/>
		<g>
			<circle fill="#87724F" cx="12" cy="341.9" r="1.7"/>
			<circle fill="#87724F" cx="18.1" cy="348" r="1.7"/>
		</g>
	</g>
</g>
</svg>
