<?xml version="1.0" encoding="utf-8"?>
<!-- Generator: Adobe Illustrator 18.1.0, SVG Export Plug-In . SVG Version: 6.00 Build 0)  -->
<!DOCTYPE svg PUBLIC "-//W3C//DTD SVG 1.1//EN" "http://www.w3.org/Graphics/SVG/1.1/DTD/svg11.dtd">
<svg version="1.1" id="Layer_1" xmlns="http://www.w3.org/2000/svg" xmlns:xlink="http://www.w3.org/1999/xlink" x="0px" y="0px"
	 viewBox="0 0 294 360.8" enable-background="new 0 0 294 360.8" xml:space="preserve">
<g>
	<defs>
		<rect id="SVGID_1_" x="27" y="27.9" width="240" height="303"/>
	</defs>
	<clipPath id="SVGID_2_">
		<use xlink:href="#SVGID_1_"  overflow="visible"/>
	</clipPath>
	<g clip-path="url(#SVGID_2_)">
		
			<image overflow="visible" width="753" height="557" xlink:href="../../production/public-domain-images-vintage-mugshots-1920s-nswpd-0006-753x557.jpg"  transform="matrix(0.7014 0 0 0.7014 8.6139 -46.5498)">
		</image>
	</g>
</g>
<g>
	<path fill="none" stroke="#807152" stroke-miterlimit="10" d="M284.3,333.9V27.3c-10.5,0-19-8.5-19-19c0-0.1,0-0.2,0-0.3H28
		c0,0.1,0,0.2,0,0.3c0,10.4-8.3,18.8-18.7,19V334c10.3,0.2,18.7,8.6,18.7,19h237.3C265.3,342.4,273.8,333.9,284.3,333.9z"/>
	<g>
		<path fill="#807152" d="M16.7,12.8c2.4,2.4,2.1,3.2,1.4,3.9c-0.7,0.7-1.5,1-3.9-1.4S9.3,7.9,9.3,7.9S14.3,10.4,16.7,12.8z"/>
		<g>
			<circle fill="#807152" cx="13.3" cy="18" r="1.7"/>
			<circle fill="#807152" cx="19.4" cy="11.9" r="1.7"/>
		</g>
	</g>
	<g>
		<path fill="#807152" d="M276.9,12.8c-2.4,2.4-2.1,3.2-1.4,3.9c0.7,0.7,1.5,1,3.9-1.4s4.9-7.4,4.9-7.4S279.3,10.4,276.9,12.8z"/>
		<g>
			<circle fill="#807152" cx="280.3" cy="18" r="1.7"/>
			<circle fill="#807152" cx="274.2" cy="11.9" r="1.7"/>
		</g>
	</g>
	<g>
		<path fill="#807152" d="M276.9,348.1c-2.4-2.4-2.1-3.2-1.4-3.9s1.5-1,3.9,1.4s4.9,7.4,4.9,7.4S279.3,350.5,276.9,348.1z"/>
		<g>
			<circle fill="#807152" cx="280.3" cy="342.9" r="1.7"/>
			<circle fill="#807152" cx="274.2" cy="349" r="1.7"/>
		</g>
	</g>
	<g>
		<path fill="#807152" d="M16.7,348.1c2.4-2.4,2.1-3.2,1.4-3.9s-1.5-1-3.9,1.4s-4.9,7.4-4.9,7.4S14.3,350.5,16.7,348.1z"/>
		<g>
			<circle fill="#807152" cx="13.3" cy="342.9" r="1.7"/>
			<circle fill="#807152" cx="19.4" cy="349" r="1.7"/>
		</g>
	</g>
</g>
</svg>
