<?xml version="1.0" encoding="utf-8"?>
<!-- Generator: Adobe Illustrator 18.1.0, SVG Export Plug-In . SVG Version: 6.00 Build 0)  -->
<!DOCTYPE svg PUBLIC "-//W3C//DTD SVG 1.1//EN" "http://www.w3.org/Graphics/SVG/1.1/DTD/svg11.dtd">
<svg version="1.1" id="Layer_1" xmlns="http://www.w3.org/2000/svg" xmlns:xlink="http://www.w3.org/1999/xlink" x="0px" y="0px"
	 viewBox="0 0 720 720" style="enable-background:new 0 0 720 720;" xml:space="preserve">
<style type="text/css">
	.st0{display:none;}
	.st1{display:inline;}
	.st2{font-family:'Helvetica';}
	.st3{font-size:12.8002;}
	.st4{font-family:'Helvetica-Bold';}
	.st5{font-size:32.8414;}
	.st6{enable-background:new    ;}
	.st7{display:inline;fill:none;stroke:#FFFFFF;stroke-miterlimit:10;}
	.st8{display:inline;fill:none;}
	.st9{display:inline;stroke:#FFFFFF;stroke-miterlimit:10;}
	.st10{fill:#87724F;}
</style>
<g id="Captions" class="st0">
	<rect x="-1230.6" y="292.3" class="st1" width="986.4" height="527.8"/>
	<rect x="-206" y="100" class="st1" width="533.5" height="159.8"/>
	<text transform="matrix(1 0 0 1 145.6694 188.3318)" class="st1 st2 st3">http://thenounproject.com</text>
	<text transform="matrix(1 0 0 1 -168.113 161.6697)" class="st1 st4 st5">The Noun Project</text>
	<text transform="matrix(1 0 0 1 -162.1364 187.2638)" class="st1 st4" style="font-size:21.3336;">Icon Template</text>
	<text transform="matrix(1 0 0 1 -1158.3325 348.3322)" class="st1 st4 st5">Reminders</text>
	<line class="st7" x1="-163.6" y1="215.2" x2="-110.3" y2="215.2"/>
	<line class="st7" x1="-1160.8" y1="380.1" x2="-1070" y2="380.1"/>
	<g class="st1">
		<g>
			<g>
				<rect x="-1117.6" y="459.3" width="46.8" height="46.1"/>
				<path d="M-1083.7,517.6h25.2v-25.2h-25.2V517.6z M-1055.6,520.5h-30.2V491h30.2V520.5L-1055.6,520.5z M-1093.1,527h43.9v-43.2
					h-43.9V527L-1093.1,527z M-1046.3,529.9h-49v-48.2h49V529.9L-1046.3,529.9z"/>
				<polygon points="-1092.4,527.7 -1093.1,527 -1049.2,483.1 -1048.4,483.8 				"/>
			</g>
		</g>
	</g>
	<rect x="-1160.8" y="601.9" class="st8" width="186.5" height="173.5"/>
	<text transform="matrix(1 0 0 1 -1160.9958 613.1685)" class="st1 st4" style="font-size:15.9998;">Strokes</text>
	<text transform="matrix(1 0 0 1 -1160.9958 639.8345)" class="st1 st2 st3">Try to keep strokes at 4px</text>
	<text transform="matrix(1 0 0 1 -1160.9958 666.5048)" class="st1 st2 st3">Minimum stroke weight is 2px</text>
	<text transform="matrix(1 0 0 1 -1160.9958 690.5037)" class="st1 st2 st3">For thicker strokes use even </text>
	<text transform="matrix(1 0 0 1 -1160.9958 706.5041)" class="st1 st2 st3">numbers: 6px, 8px etc.</text>
	<text transform="matrix(1 0 0 1 -1160.9958 730.5072)" class="st1 st4 st3">Remember to expand strokes </text>
	<text transform="matrix(1 0 0 1 -1160.9958 746.5033)" class="st1 st4 st3">before saving as an SVG </text>
	<rect x="-934.7" y="601.9" class="st8" width="186.5" height="173.5"/>
	<text transform="matrix(1 0 0 1 -934.3306 613.1685)" class="st1 st4" style="font-size:15.9998;">Size</text>
	<text transform="matrix(1 0 0 1 -934.3306 639.8345)" class="st1 st2 st3">Cannot be wider or taller than </text>
	<text transform="matrix(1 0 0 1 -934.3306 658.5072)" class="st1 st2 st3">100px (artboard size)</text>
	<text transform="matrix(1 0 0 1 -934.3306 685.1685)" class="st1 st2 st3">Scale your icon to fill as much of </text>
	<text transform="matrix(1 0 0 1 -934.3306 701.1732)" class="st1 st2 st3">the artboard as possible</text>
	<rect x="-707.9" y="601.9" class="st8" width="186.5" height="173.5"/>
	<text transform="matrix(1 0 0 1 -707.6646 613.1685)" class="st1 st4" style="font-size:15.9998;">Ungroup</text>
	<text transform="matrix(1 0 0 1 -707.6646 639.8345)" class="st1 st2 st3">If your design has more than one </text>
	<text transform="matrix(1 0 0 1 -707.6646 655.8353)" class="st1 st2 st3">shape, make sure to ungroup</text>
	<rect x="-473.2" y="601.9" class="st8" width="186.5" height="173.5"/>
	<text transform="matrix(1 0 0 1 -472.9966 613.1685)" class="st1 st4" style="font-size:15.9998;">Save as</text>
	<text transform="matrix(1 0 0 1 -472.9966 639.8345)" class="st1 st2 st3">Save as .SVG and make sure </text>
	<text transform="matrix(1 0 0 1 -472.9966 655.8353)" class="st1 st2 st3">“Use Artboards” is checked</text>
	<text transform="matrix(1.0074 0 0 1 -875.8949 455.4974)" class="st1 st2" style="font-size:13.7232;">100px</text>
	<text transform="matrix(1.0074 0 0 1 -424.9988 500.3306)" class="st1 st4" style="font-size:27.4464;">.SVG</text>
	<rect x="-881.4" y="478" class="st1" width="54.7" height="54"/>
	<rect x="-880.7" y="461.5" class="st1" width="2.9" height="12.2"/>
	<rect x="-829.6" y="461.5" class="st1" width="2.9" height="12.2"/>
	<rect x="-883.6" y="465.1" class="st1" width="59.8" height="2.9"/>
	<g class="st1">
		<rect x="-653.2" y="473" width="54.7" height="54"/>
		<rect x="-615.7" y="445.6" width="18" height="17.3"/>
	</g>
	<rect x="-1158.6" y="412.5" class="st9" width="159.8" height="159.8"/>
	<rect x="-934.7" y="412.5" class="st9" width="159.8" height="159.8"/>
	<rect x="-705" y="412.5" class="st9" width="159.8" height="159.8"/>
	<rect x="-470.3" y="412.5" class="st9" width="159.8" height="159.8"/>
</g>
<g id="Your_Icon">
	<path class="st10" d="M569.1,471.5c-3.6,0-7.2,1.4-10.1,2.9l-61.2-103l61.2-103c2.9,1.4,5.8,2.9,10.1,2.9
		c10.8,0,19.4-8.6,19.4-19.4c0-10.8-8.6-19.4-19.4-19.4s-19.4,8.6-19.4,19.4l0,0l-119.5,1.4l-58.3-104.4c5.8-3.6,10.1-9.4,10.1-16.6
		c0-10.8-8.6-19.4-19.4-19.4c-10.8,0-19.4,8.6-19.4,19.4c0,7.2,4.3,13.7,10.1,16.6l-58.3,104.4l-119.5-1.4l0,0
		c0-10.8-8.6-19.4-19.4-19.4c-10.8,0-19.4,8.6-19.4,19.4c0,10.8,8.6,19.4,19.4,19.4c3.6,0,6.5-1.4,10.1-2.9l61.2,103l-61.2,103
		c-2.9-1.4-6.5-2.9-10.1-2.9c-10.8,0-19.4,8.6-19.4,19.4c0,10.8,8.6,19.4,19.4,19.4c10.8,0,19.4-8.6,19.4-19.4l0,0l119.5-1.4
		l58.3,104.4c-5.8,3.6-10.1,9.4-10.1,16.6c0,10.8,8.6,19.4,19.4,19.4c10.8,0,19.4-8.6,19.4-19.4c0-7.2-4.3-13.7-10.1-16.6
		l58.3-104.4l119.5,1.4l0,0c0,10.8,8.6,19.4,19.4,19.4s19.4-8.6,19.4-19.4C588.6,480.1,579.9,471.5,569.1,471.5z"/>
</g>
</svg>
